<svg version="1.2" baseProfile="tiny" id="Calque_1"
	 xmlns="http://www.w3.org/2000/svg" xmlns:xlink="http://www.w3.org/1999/xlink" x="0px" y="0px" viewBox="-473 274 12 13"
	 xml:space="preserve">
<title>Vector</title>
<g id="Canvas" transform="translate(72 334)">
	<g id="Vector">
		<g transform="translate(-71.9384 -333.152)">
			<path id="path0_fill" fill="#595555" d="M-537.8-57.3c0.5,0.4,0.9,1.1,1,1.8c0.2,0.1,0.5,0.2,0.7,0.2c0.9,0,1.7-0.9,1.7-2
				c0-1.1-0.8-2-1.7-2C-537-59.3-537.8-58.4-537.8-57.3z M-538.9-53.2c0.9,0,1.7-0.9,1.7-2s-0.8-2-1.7-2s-1.7,0.9-1.7,2
				S-539.8-53.2-538.9-53.2z M-538.2-53h-1.4c-1.2,0-2.2,1.2-2.2,2.6v2.1l0,0l0.1,0c1.1,0.4,2.1,0.6,2.9,0.6c1.6,0,2.5-0.5,2.6-0.6
				l0.1-0.1h0v-2.1C-536-51.9-537-53-538.2-53z M-535.4-55.1h-1.4c0,0.7-0.3,1.3-0.6,1.7c1.1,0.4,1.8,1.5,1.8,2.9v0.6
				c1.4-0.1,2.2-0.5,2.3-0.6l0.1-0.1h0v-2.1C-533.2-54-534.2-55.1-535.4-55.1z M-541.9-55.2c0.3,0,0.6-0.1,0.9-0.3
				c0.1-0.6,0.4-1.2,0.8-1.6c0,0,0-0.1,0-0.1c0-1.1-0.8-2-1.7-2c-0.9,0-1.7,0.9-1.7,2C-543.6-56.1-542.8-55.2-541.9-55.2z
				 M-540.4-53.4c-0.4-0.4-0.6-1-0.6-1.7c-0.1,0-0.1,0-0.2,0h-1.4c-1.2,0-2.2,1.2-2.2,2.6v2.1l0,0l0.1,0c0.9,0.3,1.7,0.5,2.4,0.5
				v-0.6C-542.2-51.8-541.4-53-540.4-53.4z"/>
		</g>
	</g>
</g>
</svg>

