<svg width="144" height="135" viewBox="0 0 144 135" version="1.1" xmlns="http://www.w3.org/2000/svg" xmlns:xlink="http://www.w3.org/1999/xlink">
    <title>Find game icon</title>
    <g id="Canvas" transform="translate(80 -84)">
        <g id="Find game icon" filter="url(#filter0_dd)">
            <g id="Ellipse">
                <use xlink:href="#path0_fill" transform="translate(-34 94)" fill="#F7F7F7"/>
            </g>
            <g id="Group">
                <g id="Vector">
                    <use xlink:href="#path1_fill" transform="matrix(-1 0 0 -1 -13.6053 201.797)" fill="#595555"/>
                </g>
                <g id="Vector">
                    <use xlink:href="#path2_fill" transform="matrix(-1 0 0 -1 -24.7285 191.942)" fill="#595555"/>
                </g>
                <g id="Vector">
                    <use xlink:href="#path3_fill" transform="matrix(-1 0 0 -1 -41.2996 202.162)" fill="#595555"/>
                </g>
                <g id="Vector">
                    <use xlink:href="#path4_fill" transform="matrix(-1 0 0 -1 -35.8527 201.402)" fill="#595555"/>
                </g>
                <g id="Vector">
                    <use xlink:href="#path5_fill" transform="matrix(-1 0 0 -1 56 183.028)" fill="#595555"/>
                </g>
            </g>
        </g>
    </g>
    <defs>
        <filter id="filter0_dd" filterUnits="userSpaceOnUse" x="-80" y="84" width="145" height="135" color-interpolation-filters="sRGB">
            <feFlood flood-opacity="0" result="BackgroundImageFix"/>
            <feColorMatrix in="SourceAlpha" type="matrix" values="0 0 0 0 0 0 0 0 0 0 0 0 0 0 0 0 0 0 255 0"/>
            <feOffset dx="0" dy="8"/>
            <feGaussianBlur stdDeviation="4"/>
            <feColorMatrix type="matrix" values="0 0 0 0 0 0 0 0 0 0 0 0 0 0 0 0 0 0 0.25 0"/>
            <feBlend mode="normal" in2="BackgroundImageFix" result="effect1_dropShadow"/>
            <feColorMatrix in="SourceAlpha" type="matrix" values="0 0 0 0 0 0 0 0 0 0 0 0 0 0 0 0 0 0 255 0"/>
            <feOffset dx="0" dy="0"/>
            <feGaussianBlur stdDeviation="4"/>
            <feColorMatrix type="matrix" values="0 0 0 0 0 0 0 0 0 0 0 0 0 0 0 0 0 0 0.12 0"/>
            <feBlend mode="normal" in2="effect1_dropShadow" result="effect2_dropShadow"/>
            <feBlend mode="normal" in="SourceGraphic" in2="effect2_dropShadow" result="shape"/>
        </filter>
        <path id="path0_fill" d="M 88 44C 88 68.3005 68.3005 88 44 88C 19.6995 88 0 68.3005 0 44C 0 19.6995 19.6995 0 44 0C 68.3005 0 88 19.6995 88 44Z"/>
        <path id="path1_fill" d="M 2.18911 14.2916C 2.74971 14.2916 3.31032 14.0785 3.73806 13.6508L 13.6508 3.73806C 14.5063 2.88402 14.5063 1.49566 13.6508 0.641624C 12.7953 -0.213875 11.4098 -0.213875 10.5543 0.641624L 0.641623 10.5543C -0.213876 11.4084 -0.213876 12.7967 0.641623 13.6508C 1.06791 14.0785 1.62851 14.2916 2.18911 14.2916Z"/>
        <path id="path2_fill" d="M 0.64144 14.9209C 1.06919 15.3486 1.62979 15.5618 2.19039 15.5618C 2.75099 15.5618 3.31159 15.3486 3.73934 14.9209L 14.9221 3.73806C 15.7776 2.88402 15.7776 1.49712 14.9221 0.641624C 14.0666 -0.213875 12.6812 -0.213875 11.8257 0.641624L 0.642899 11.8244C -0.214059 12.6785 -0.214059 14.0654 0.64144 14.9209Z"/>
        <path id="path3_fill" d="M 2.18912 9.21121C 2.74972 9.21121 3.31031 8.99806 3.73806 8.57032L 8.57031 3.73806C 9.42581 2.88402 9.42581 1.49566 8.57031 0.641624C 7.71481 -0.213875 6.32938 -0.213875 5.47388 0.641624L 0.64162 5.47388C -0.213879 6.32792 -0.213879 7.71628 0.64162 8.57032C 1.06937 8.9966 1.62998 9.21121 2.18912 9.21121Z"/>
        <path id="path4_fill" d="M 35.5054 0.641624C 34.6499 -0.213875 33.2644 -0.213875 32.4089 0.641624L 0.641627 32.409C -0.213872 33.263 -0.213872 34.6514 0.641627 35.5054C 1.06938 35.9331 1.62997 36.1463 2.19057 36.1463C 2.75117 36.1463 3.31178 35.9331 3.73953 35.5054L 35.5068 3.73806C 36.3609 2.88256 36.3609 1.49566 35.5054 0.641624Z"/>
        <path id="path5_fill" d="M 91.1455 41.1945C 90.6593 35.9009 89.2768 30.8044 87.0359 26.0481C 87.0344 26.0452 87.0344 26.0437 87.033 26.0408C 84.8168 21.3107 81.7992 17.0157 78.0736 13.2915C 77.3173 12.5178 76.5859 11.8389 75.891 11.2579C 73.764 9.3717 71.4325 7.66946 68.958 6.19789C 68.9551 6.19643 68.9536 6.19497 68.9521 6.19351C 67.555 5.36867 66.2046 4.66061 64.8265 4.0314C 60.8249 2.19047 56.5752 0.95102 52.1911 0.346623C 51.1838 0.209393 50.1764 0.102822 49.1501 0.0254474C 48.2946 -0.0358682 47.388 0.152457 46.6289 0.143698C 43.7354 0.0823825 40.8229 -0.447558 37.9805 1.01234C 37.9732 1.01234 37.9673 1.01234 37.96 1.01234C 32.1788 1.01234 26.732 3.53212 21.7844 6.62563C 19.3931 8.09721 17.101 9.77171 14.974 11.2316L 14.9725 11.2316C 14.9711 11.2316 14.9696 11.5732 14.9681 11.5747C 14.9638 11.5791 14.9579 11.7528 14.9521 11.7586C 14.9506 11.7601 14.9506 11.8462 14.9492 11.8462C 14.4893 12.2594 14.0309 12.7295 13.5885 13.1733C 13.3827 13.3791 13.1652 13.6229 12.971 13.8594C 9.53732 17.4128 6.51388 21.4509 4.43791 25.8349C 2.39697 30.0847 1.63345 34.6177 0.173553 39.2864C 0.173553 39.2864 0.173553 39.2879 0.173553 39.2893C 0.173553 41.8515 -0.0731695 44.4895 0.0217237 47.183L 0.224649 48.7392C 0.537067 53.2781 1.56629 57.6636 3.16488 61.7805C 3.16634 61.7834 3.19408 61.7863 3.19554 61.7907C 3.19846 61.7995 3.21744 61.8082 3.22035 61.817C 3.22327 61.8243 3.23203 61.833 3.23495 61.8403C 3.23641 61.8418 3.24079 61.8447 3.24225 61.8462C 3.60285 62.8331 4.03352 63.8477 4.55762 64.9455C 6.37227 68.7763 8.71686 72.3326 11.5695 75.5692C 11.6673 75.6845 11.7666 75.7955 11.8732 75.9021C 12.371 76.4948 12.9287 77.1006 13.5287 77.7007C 16.3799 80.5518 19.5931 83.0132 23.126 85.041C 23.2881 85.1344 23.4501 85.2235 23.6122 85.3082C 23.618 85.3111 23.6239 85.3169 23.6297 85.3198C 29.335 88.5097 35.8359 90.4412 42.4156 90.9054C 43.4857 90.9872 44.5719 91.028 45.6595 91.028C 46.2041 91.028 46.7501 91.0163 47.2931 90.9974C 47.299 90.9974 47.3048 90.9959 47.3107 90.9945C 52.4042 90.8368 57.3781 89.8426 62.095 88.0367C 62.8191 87.7608 63.5403 87.4659 64.2644 87.1447C 64.3345 87.1126 64.4031 87.0776 64.4688 87.0396C 68.8865 85.0687 72.9493 82.3942 76.5465 79.0875C 76.6049 79.0394 76.6633 78.981 76.7203 78.927C 77.1203 78.5926 77.5159 78.2131 77.8531 77.8612L 77.729 77.7328C 83.3657 72.1107 87.7644 65.1105 89.2243 57.4884C 89.2243 57.4869 89.2243 57.4869 89.2243 57.4855C 89.2243 57.484 89.2243 57.9468 89.2243 57.9468L 89.4783 57.9468L 89.6053 57.9468C 90.0287 56.4869 90.4272 54.6095 90.6652 53.1087C 90.6695 53.0824 90.7046 52.9408 90.7075 52.9145C 91.2871 49.4473 91.4637 45.8136 91.2053 42.2836C 91.1922 41.9464 91.1761 41.5347 91.1455 41.1945ZM 74.9625 16.3719C 78.0648 19.4742 80.5875 23.0144 82.5321 26.8729L 73.9713 40.6368L 61.806 41.8223L 50.3239 29.4672L 51.8641 18.4931L 68.7784 11.6097C 68.8631 11.5761 68.9273 11.5148 69.0062 11.4725C 70.3974 12.4302 71.7551 13.4433 73.0326 14.5762C 73.6662 15.1062 74.2924 15.6872 74.9625 16.3719ZM 22.8414 63.1061L 6.96061 59.2008C 5.73867 55.7847 4.96493 52.1788 4.70945 48.4648L 4.62331 46.9815C 4.5547 45.0034 4.65543 43.0398 4.8569 41.1084L 19.2588 35.2425L 28.624 39.7244L 30.6065 56.1964L 22.8414 63.1061ZM 24.0925 10.4608C 28.224 7.87823 32.7336 6.09131 37.506 5.1161L 47.6377 17.1091L 46.0114 28.6949L 30.6241 35.825L 21.1844 31.3081L 19.8909 13.6842C 19.8865 13.6171 19.8559 13.5587 19.8456 13.493C 21.2063 12.3849 22.6238 11.3645 24.0925 10.4608ZM 26.7933 82.0351L 25.6473 66.4741L 33.4314 59.5498L 50.1706 62.8564L 53.743 72.2421L 44.8113 86.6381C 44.1179 86.6235 43.4244 86.5929 42.7368 86.5403C 37.0885 86.1403 31.7336 84.6162 26.7933 82.0351ZM 75.3888 74.102L 57.4569 69.6931L 54.1605 61.0301L 62.4556 46.1611L 74.6706 44.9713L 85.1789 57.4169C 83.3146 63.6506 79.9554 69.3822 75.3888 74.102Z"/>
    </defs>
</svg>
