<svg width="136" height="152" viewBox="0 0 136 152" version="1.1" xmlns="http://www.w3.org/2000/svg" xmlns:xlink="http://www.w3.org/1999/xlink">
    <title>Search player icon</title>
    <g id="Canvas" transform="translate(-53 60)">
        <g id="Search player icon">
            <g id="Vector" filter="url(#filter0_dd)">
                <use xlink:href="#path0_fill" transform="translate(61 -52)" fill="#595555"/>
            </g>
            <g id="Vector 2">
                <use xlink:href="#path1_stroke" transform="translate(93.8125 5)" fill="#F7F5F5"/>
            </g>
            <g id="Vector 3">
                <use xlink:href="#path2_stroke" transform="translate(65.6875 6)" fill="#F7F7F7"/>
            </g>
        </g>
    </g>
    <defs>
        <filter id="filter0_dd" filterUnits="userSpaceOnUse" x="53" y="-60" width="136" height="152" color-interpolation-filters="sRGB">
            <feFlood flood-opacity="0" result="BackgroundImageFix"/>
            <feColorMatrix in="SourceAlpha" type="matrix" values="0 0 0 0 0 0 0 0 0 0 0 0 0 0 0 0 0 0 255 0"/>
            <feOffset dx="0" dy="8"/>
            <feGaussianBlur stdDeviation="4"/>
            <feColorMatrix type="matrix" values="0 0 0 0 0 0 0 0 0 0 0 0 0 0 0 0 0 0 0.25 0"/>
            <feBlend mode="normal" in2="BackgroundImageFix" result="effect1_dropShadow"/>
            <feColorMatrix in="SourceAlpha" type="matrix" values="0 0 0 0 0 0 0 0 0 0 0 0 0 0 0 0 0 0 255 0"/>
            <feOffset dx="0" dy="0"/>
            <feGaussianBlur stdDeviation="4"/>
            <feColorMatrix type="matrix" values="0 0 0 0 0 0 0 0 0 0 0 0 0 0 0 0 0 0 0.12 0"/>
            <feBlend mode="normal" in2="effect1_dropShadow" result="effect2_dropShadow"/>
            <feBlend mode="normal" in="SourceGraphic" in2="effect2_dropShadow" result="shape"/>
        </filter>
        <path id="path0_fill" d="M 72.4148 21.9695C 77.9633 26.379 81.854 33.8408 82.5623 42.5022C 84.8252 43.8423 87.3366 44.6129 89.9993 44.6129C 99.72 44.6129 107.599 34.6266 107.599 22.3074C 107.599 9.98633 99.72 9.41328e-08 89.9993 9.41328e-08C 80.3714 0.00379646 72.5616 9.8117 72.4148 21.9695ZM 60.8851 67.6436C 70.6058 67.6436 78.4845 57.6553 78.4845 45.3361C 78.4845 33.017 70.6043 23.0306 60.8851 23.0306C 51.1659 23.0306 43.2827 33.0189 43.2827 45.338C 43.2827 57.6572 51.1659 67.6436 60.8851 67.6436ZM 68.3504 69.164L 53.4167 69.164C 40.9914 69.164 30.8828 81.9786 30.8828 97.7278L 30.8828 120.876L 30.9292 121.239L 32.1872 121.738C 44.0449 126.434 54.3467 128 62.8259 128C 79.3875 128 88.9869 122.015 89.5784 121.634L 90.754 120.88L 90.8798 120.88L 90.8798 97.7278C 90.8843 81.9786 80.7757 69.164 68.3504 69.164ZM 97.4676 46.1353L 82.6492 46.1353C 82.489 53.6502 79.9581 60.4172 75.9551 65.2841C 86.9996 69.4468 95.0805 82.4285 95.0805 97.762L 95.0805 104.895C 109.712 104.216 118.143 98.9597 118.699 98.6067L 119.874 97.8512L 120 97.8512L 120 74.6953C 120 58.948 109.891 46.1353 97.4676 46.1353ZM 30.0037 44.6167C 33.4466 44.6167 36.6499 43.3431 39.3635 41.1734C 40.2261 34.042 43.2422 27.8102 47.5507 23.5659C 47.5687 23.1483 47.6002 22.7345 47.6002 22.3131C 47.6002 9.99202 39.72 0.00569422 30.0037 0.00569422C 20.2815 0.00569422 12.4043 9.99202 12.4043 22.3131C 12.4043 34.6285 20.2815 44.6167 30.0037 44.6167ZM 45.8091 65.2841C 41.8255 60.4419 39.3036 53.7109 39.1194 46.2416C 38.5698 46.1903 38.0262 46.1353 37.4661 46.1353L 22.5339 46.1353C 10.1086 46.1353 0 58.948 0 74.6953L 0 97.8474L 0.0464246 98.2043L 1.30438 98.7073C 10.8169 102.471 19.3066 104.206 26.6806 104.753L 26.6806 97.762C 26.6836 82.4285 34.7615 69.4506 45.8091 65.2841Z"/>
        <path id="path1_stroke" d="M -0.675361 31.3394C 10.3808 36.9143 19.2234 39.9309 28.2494 40.2636C 37.2778 40.5965 46.3224 38.2382 57.7733 33.3809L 56.6017 30.6191C 45.332 35.3996 36.7577 37.5753 28.36 37.2657C 19.9599 36.956 11.569 34.1537 0.675361 28.6606L -0.675361 31.3394ZM 81.1285 -0.607427C 80.1613 1.57647 78.6374 3.64032 75.0179 6.54547C 71.3626 9.47935 65.6606 13.2002 56.4192 18.7117L 57.9558 21.2883C 67.2004 15.7749 73.0624 11.9618 76.8957 8.88506C 80.7649 5.77954 82.6543 3.35588 83.8715 0.607427L 81.1285 -0.607427Z"/>
        <path id="path2_stroke" d="M 24.9423 22.6114C 16.9242 19.336 11.6733 16.5184 8.11605 13.0974C 4.62113 9.73632 2.65926 5.68997 1.47127 -0.292179L -1.47127 0.292179C -0.200351 6.69189 1.98088 11.3594 6.03653 15.2597C 10.0299 19.1001 15.737 22.0917 23.8077 25.3886L 24.9423 22.6114Z"/>
    </defs>
</svg>
