<svg width="108" height="144" viewBox="0 0 108 144" version="1.1" xmlns="http://www.w3.org/2000/svg" xmlns:xlink="http://www.w3.org/1999/xlink">
    <title>Store icon</title>
    <g id="Canvas" transform="translate(171 67)">
        <g id="Store icon" filter="url(#filter0_dd)">
            <g id="Group">
                <g id="Group">
                    <g id="Vector">
                        <use xlink:href="#path0_fill" transform="translate(-141.343 -67)" fill="#61412B" fill-opacity="0.93"/>
                    </g>
                </g>
                <g id="Vector 2">
                    <use xlink:href="#path1_fill" transform="translate(-161.747 -36)" fill="#61412B" fill-opacity="0.93"/>
                    <use xlink:href="#path2_stroke" transform="translate(-161.747 -36)" fill="#61412B"/>
                </g>
            </g>
            <g id="Group">
                <g id="Canvas">
                    <g id="Coin">
                        <g id="Vector">
                            <g id="Vector">
                                <use xlink:href="#path3_fill" transform="translate(-129.758 11.971)" fill="#C9C5C5"/>
                            </g>
                        </g>
                        <g id="Vector">
                            <g id="Vector">
                                <use xlink:href="#path4_fill" transform="translate(-111.821 -8.25728)" fill="#C9C5C5"/>
                            </g>
                        </g>
                        <g id="Vector">
                            <g id="Vector">
                                <use xlink:href="#path5_fill" transform="translate(-132 -15)" fill="#C9C5C5"/>
                            </g>
                        </g>
                    </g>
                </g>
            </g>
        </g>
    </g>
    <defs>
        <filter id="filter0_dd" filterUnits="userSpaceOnUse" x="-171" y="-67" width="108" height="144" color-interpolation-filters="sRGB">
            <feFlood flood-opacity="0" result="BackgroundImageFix"/>
            <feColorMatrix in="SourceAlpha" type="matrix" values="0 0 0 0 0 0 0 0 0 0 0 0 0 0 0 0 0 0 255 0"/>
            <feOffset dx="0" dy="8"/>
            <feGaussianBlur stdDeviation="4"/>
            <feColorMatrix type="matrix" values="0 0 0 0 0 0 0 0 0 0 0 0 0 0 0 0 0 0 0.25 0"/>
            <feBlend mode="normal" in2="BackgroundImageFix" result="effect1_dropShadow"/>
            <feColorMatrix in="SourceAlpha" type="matrix" values="0 0 0 0 0 0 0 0 0 0 0 0 0 0 0 0 0 0 255 0"/>
            <feOffset dx="0" dy="8"/>
            <feGaussianBlur stdDeviation="4"/>
            <feColorMatrix type="matrix" values="0 0 0 0 0 0 0 0 0 0 0 0 0 0 0 0 0 0 0.12 0"/>
            <feBlend mode="normal" in2="effect1_dropShadow" result="effect2_dropShadow"/>
            <feBlend mode="normal" in="SourceGraphic" in2="effect2_dropShadow" result="shape"/>
        </filter>
        <path id="path0_fill" d="M 7.11859 24.8926L 40.878 24.8926C 47.6195 16.1392 47.8807 9.58071 47.9853 9.18877C 48.6908 3.51865 43.5171 -0.949511 37.9515 0.174061C 33.6924 1.19311 29.0413 1.68958 24.0767 1.68958C 19.1121 1.68958 14.4349 1.19311 10.2019 0.27858C 4.63628 -0.949511 -0.641893 3.62317 0.0636054 9.18877C 0.141994 9.68523 1.21331 18.2035 7.11859 24.8926Z"/>
        <path id="path1_fill" d="M 63.7475 0L 26.7475 0C 13.6059 5.633 -11.2525 53 5.74747 80C 22.7474 107 69.7475 92 73.7475 90C 76.9475 88.4 82.7475 83 84.7475 80C 86.7474 77 88.9708 71.9709 89.7475 66C 90.5241 60.0291 89.3682 44.6001 84.7475 32C 79.601 17.9665 69.4141 6 63.7475 0Z"/>
        <path id="path2_stroke" d="M 26.7475 0L 26.7475 -0.5L 26.6448 -0.5L 26.5505 -0.459561L 26.7475 0ZM 63.7475 0L 64.111 -0.343312L 63.963 -0.5L 63.7475 -0.5L 63.7475 0ZM 84.7475 32L 84.278 32.1721L 84.7475 32ZM 89.7475 66L 89.2516 65.9355L 89.7475 66ZM 84.7475 80L 84.3314 79.7226L 84.3314 79.7226L 84.7475 80ZM 73.7475 90L 73.5238 89.5528L 73.7475 90ZM 26.7475 0.5L 63.7475 0.5L 63.7475 -0.5L 26.7475 -0.5L 26.7475 0.5ZM 63.384 0.343312C 69.0379 6.32983 79.1674 18.2362 84.278 32.1721L 85.2169 31.8278C 80.0346 17.6967 69.7904 5.67017 64.111 -0.343312L 63.384 0.343312ZM 84.278 32.1721C 86.5719 38.4271 88.0091 45.3953 88.7753 51.5477C 89.5425 57.708 89.6321 63.0103 89.2516 65.9355L 90.2433 66.0645C 90.6395 63.0188 90.5394 57.6212 89.7677 51.4241C 88.9949 45.2193 87.5438 38.173 85.2169 31.8278L 84.278 32.1721ZM 89.2516 65.9355C 88.4853 71.8275 86.2904 76.7841 84.3314 79.7226L 85.1635 80.2773C 87.2045 77.2158 89.4564 72.1143 90.2433 66.0645L 89.2516 65.9355ZM 84.3314 79.7226C 83.3647 81.1728 81.4493 83.2408 79.3596 85.1564C 77.2669 87.0747 75.0589 88.7852 73.5238 89.5528L 73.9711 90.4472C 75.636 89.6147 77.928 87.8253 80.0353 85.8936C 82.1456 83.9592 84.1303 81.8272 85.1635 80.2773L 84.3314 79.7226ZM 73.5238 89.5528C 72.5768 90.0263 68.935 91.3283 63.7081 92.5921C 58.4961 93.8523 51.7478 95.0647 44.6007 95.3755C 30.2738 95.9984 14.521 92.9961 6.17059 79.7336L 5.32435 80.2664C 13.9739 94.0039 30.2212 97.0016 44.6442 96.3745C 51.8721 96.0603 58.6863 94.8351 63.9431 93.5641C 69.1849 92.2967 72.9181 90.9737 73.9711 90.4472L 73.5238 89.5528ZM 6.17059 79.7336C -2.20427 66.4323 -0.300857 48.0315 5.41485 32.1567C 8.26712 24.2349 12.0558 16.9812 15.9427 11.3641C 19.846 5.72317 23.7963 1.809 26.9445 0.459561L 26.5505 -0.459561C 23.1279 1.0075 19.0428 5.12658 15.1204 10.795C 11.1815 16.4872 7.35401 23.819 4.47397 31.818C -1.27493 47.785 -3.30076 66.5677 5.32435 80.2664L 6.17059 79.7336Z"/>
        <path id="path3_fill" d="M 1.01505e-15 21.7206C 2.9178 22.0083 5.29747 22.1521 7.13901 22.1521C 8.95666 22.1521 10.3199 22.0202 11.2287 21.7566C 12.1614 21.4689 12.7952 20.9895 13.13 20.3181C 13.4888 19.6468 13.6682 18.6758 13.6682 17.4052C 13.6682 16.0147 13.4768 15.0078 13.0942 14.3845C 12.7354 13.7612 12.0777 13.3535 11.1211 13.1618C 10.1883 12.9461 8.70554 12.8382 6.67265 12.8382C 4.95067 12.8382 2.82213 12.9939 0.286995 13.3057L 0.286995 -1.4075e-15L 14.9596 -1.4075e-15L 14.9596 2.91286L 3.12108 2.91286L 3.12108 10.2849C 4.84305 10.0692 6.67264 9.96127 8.60986 9.96127C 10.8819 9.96127 12.6039 10.2249 13.7758 10.7524C 14.9477 11.2559 15.7369 12.0111 16.1435 13.018C 16.574 14.0008 16.7892 15.3435 16.7892 17.0456C 16.7892 19.0835 16.5262 20.6658 16 21.7925C 15.4978 22.9192 14.577 23.7463 13.2377 24.2738C 11.8984 24.7773 9.94919 25.029 7.39013 25.029C 6.24215 25.029 4.96265 24.969 3.55157 24.8492C 2.16444 24.7294 0.980583 24.5735 1.01505e-15 24.3817L 1.01505e-15 21.7206Z"/>
        <path id="path4_fill" d="M 15.8206 24.8492C 15.0792 24.9931 14.1465 25.101 13.0224 25.1729C 11.9223 25.2688 10.8939 25.3167 9.93722 25.3167C 6.97159 25.3167 4.80717 24.9931 3.44395 24.3458C 2.08072 23.6985 1.15993 22.5237 0.681614 20.8216C 0.227197 19.0954 4.05937e-17 16.3743 4.05937e-17 12.6584C 4.05937e-17 8.96626 0.227197 6.25726 0.681614 4.53112C 1.15993 2.80498 2.08072 1.61826 3.44395 0.970954C 4.80717 0.323652 6.97159 -9.72193e-15 9.93722 -9.72193e-15C 10.9178 -9.72193e-15 11.9462 0.0479412 13.0224 0.143845C 14.0987 0.23975 14.9835 0.371592 15.6771 0.539419L 15.6771 3.23651C 13.8834 2.99676 12.2332 2.8769 10.7265 2.8769C 8.21525 2.8769 6.4574 3.06869 5.45291 3.45228C 4.47233 3.83587 3.82659 4.66298 3.51569 5.93361C 3.20478 7.20416 3.04933 9.4459 3.04933 12.6584C 3.04933 15.8708 3.20478 18.1126 3.51569 19.3831C 3.82659 20.6537 4.47233 21.4808 5.45291 21.8644C 6.4574 22.2481 8.21525 22.4398 10.7265 22.4398C 12.568 22.4398 14.2661 22.32 15.8206 22.0802L 15.8206 24.8492Z"/>
        <path id="path5_fill" d="M 0 24.7413L 0 0L 15.3543 0L 15.3543 2.8769L 3.0852 2.8769L 3.0852 11.3638L 13.991 11.3638L 13.991 14.2766L 3.0852 14.2766L 3.0852 24.7413L 0 24.7413Z"/>
    </defs>
</svg>
